<?xml version="1.0" standalone="no"?>
<!DOCTYPE svg PUBLIC "-//W3C//DTD SVG 20010904//EN"
 "http://www.w3.org/TR/2001/REC-SVG-20010904/DTD/svg10.dtd">
<svg version="1.0" xmlns="http://www.w3.org/2000/svg"
 width="549.000000pt" height="108.000000pt" viewBox="0 0 549.000000 108.000000"
 preserveAspectRatio="xMidYMid meet">

<g transform="translate(0.000000,108.000000) scale(0.100000,-0.100000)"
fill="#000000" stroke="none">
<path d="M70 620 l0 -380 25 0 c22 0 25 -4 25 -35 l0 -35 73 2 72 2 -67 3
c-68 4 -68 4 -68 33 0 29 1 30 50 30 l50 0 0 225 0 225 40 0 c38 0 40 -2 40
-30 0 -26 -4 -30 -27 -31 l-28 -1 30 -8 c17 -4 22 -8 13 -9 -13 -1 -18 -10
-18 -30 0 -20 -6 -31 -17 -34 -17 -4 -17 -5 0 -6 14 -1 17 -11 17 -70 0 -58
-3 -70 -17 -74 -17 -4 -17 -5 0 -6 14 -1 17 -11 17 -70 0 -58 -3 -70 -17 -74
-17 -4 -17 -5 0 -6 13 -1 17 -10 17 -41 l0 -39 -92 -4 -93 -3 98 -2 97 -2 0
225 c0 143 4 225 10 225 6 0 10 -13 10 -30 0 -25 4 -30 25 -30 22 0 25 -4 25
-35 0 -26 4 -35 18 -36 9 -1 4 -5 -13 -9 l-30 -8 28 -1 c23 -1 27 -5 27 -31 0
-25 4 -30 25 -30 22 0 25 -4 25 -35 l0 -35 73 2 72 2 -67 3 c-68 4 -68 4 -68
33 0 29 1 30 50 30 l50 0 0 75 0 75 40 0 40 0 0 75 0 75 40 0 c38 0 40 -2 40
-30 0 -26 -4 -30 -27 -31 l-28 -1 30 -8 c17 -4 22 -8 13 -9 -13 -1 -18 -10
-18 -30 0 -20 -6 -31 -17 -34 -17 -4 -17 -5 0 -6 13 -1 17 -10 17 -41 l0 -40
-40 0 c-38 0 -40 -2 -40 -29 0 -20 -6 -31 -17 -34 -17 -4 -17 -5 0 -6 13 -1
17 -10 17 -41 l0 -39 -92 -4 -93 -3 98 -2 97 -2 0 75 0 75 40 0 40 0 0 75 c0
43 4 75 10 75 6 0 10 -67 10 -180 l0 -180 25 0 c22 0 25 -4 25 -35 l0 -35 73
2 72 2 -67 3 c-68 4 -68 4 -68 33 0 29 1 30 50 30 l50 0 0 330 c0 307 1 330
18 331 14 0 14 2 -3 9 -18 8 -17 9 8 9 24 1 27 -2 27 -33 0 -24 -5 -36 -17
-39 -17 -4 -17 -5 0 -6 14 -1 17 -11 17 -70 0 -58 -3 -70 -17 -74 -17 -4 -17
-5 0 -6 14 -1 17 -11 17 -70 0 -58 -3 -70 -17 -74 -17 -4 -17 -5 0 -6 14 -1
17 -11 17 -70 0 -58 -3 -70 -17 -74 -17 -4 -17 -5 0 -6 14 -1 17 -11 17 -70 0
-58 -3 -70 -17 -74 -17 -4 -17 -5 0 -6 13 -1 17 -10 17 -41 l0 -39 -92 -4 -93
-3 98 -2 97 -2 0 390 0 390 -30 0 c-28 0 -30 3 -30 35 l0 35 -120 0 -120 0 0
-75 0 -75 -40 0 -40 0 0 -75 0 -75 -50 0 -50 0 0 40 c0 38 -2 40 -30 40 -28 0
-30 3 -30 35 0 19 -4 35 -10 35 -5 0 -10 18 -10 40 0 38 -2 40 -30 40 -28 0
-30 3 -30 35 l0 35 -120 0 -120 0 0 -380z m290 265 c0 -31 -3 -35 -25 -35 -20
0 -25 5 -25 25 0 17 6 25 18 26 14 0 14 2 -3 9 -18 8 -17 9 8 9 24 1 27 -2 27
-34z m80 -150 c0 -31 -3 -35 -25 -35 -20 0 -25 5 -25 25 0 17 6 25 18 26 14 0
14 2 -3 9 -18 8 -17 9 8 9 24 1 27 -2 27 -34z m-50 -225 c0 -16 -4 -30 -10
-30 -5 0 -10 14 -10 30 0 17 5 30 10 30 6 0 10 -13 10 -30z"/>
<path d="M950 620 l0 -380 25 0 c22 0 25 -4 25 -35 l0 -35 73 2 72 2 -67 3
c-68 4 -68 4 -68 33 0 29 1 30 50 30 l50 0 0 150 0 150 120 0 120 0 0 30 c0
22 5 30 18 31 14 0 14 2 -3 9 -18 8 -17 9 8 9 24 1 27 -2 27 -33 0 -24 -5 -36
-17 -39 -17 -4 -17 -5 0 -6 13 -1 17 -10 17 -41 l0 -40 -120 0 -120 0 0 -29
c0 -20 -6 -31 -17 -34 -17 -4 -17 -5 0 -6 14 -1 17 -11 17 -70 0 -58 -3 -70
-17 -74 -17 -4 -17 -5 0 -6 13 -1 17 -10 17 -41 l0 -39 -92 -4 -93 -3 98 -2
97 -2 0 150 0 150 120 0 120 0 0 90 0 90 -30 0 c-28 0 -30 3 -30 35 l0 35 -90
0 c-89 0 -90 0 -90 25 l0 25 200 0 200 0 0 90 0 90 -30 0 c-28 0 -30 3 -30 35
l0 35 -280 0 -280 0 0 -380z m610 265 c0 -26 -4 -35 -17 -36 -17 -1 -17 -2 0
-6 12 -3 17 -15 17 -44 l0 -39 -200 0 -200 0 0 -30 c0 -25 -4 -30 -25 -30 -24
0 -25 2 -25 70 l0 70 200 0 200 0 0 30 c0 22 5 30 18 31 14 0 14 2 -3 9 -18 8
-17 9 8 9 24 1 27 -2 27 -34z"/>
<path d="M1238 773 c56 -2 148 -2 205 0 56 1 10 3 -103 3 -113 0 -159 -2 -102
-3z"/>
<path d="M2710 920 c0 -79 0 -80 25 -80 22 0 25 -4 25 -35 l0 -35 98 -2 97 -2
-110 -6 -110 -6 108 -2 107 -2 0 -255 0 -255 25 0 c22 0 25 -4 25 -35 l0 -35
73 2 72 2 -67 3 c-68 4 -68 4 -68 33 0 29 1 30 50 30 l50 0 0 300 0 300 120 0
120 0 0 30 c0 22 5 30 18 31 14 0 14 2 -3 9 -18 8 -17 9 8 9 24 1 27 -2 27
-33 0 -24 -5 -36 -17 -39 -17 -4 -17 -5 0 -6 13 -1 17 -10 17 -41 l0 -40 -120
0 -120 0 0 -29 c0 -20 -6 -31 -17 -34 -17 -4 -17 -5 0 -6 14 -1 17 -11 17 -70
0 -58 -3 -70 -17 -74 -17 -4 -17 -5 0 -6 14 -1 17 -11 17 -70 0 -58 -3 -70
-17 -74 -17 -4 -17 -5 0 -6 14 -1 17 -11 17 -70 0 -58 -3 -70 -17 -74 -17 -4
-17 -5 0 -6 13 -1 17 -10 17 -41 l0 -39 -92 -4 -93 -3 98 -2 97 -2 0 300 0
300 120 0 120 0 0 90 0 90 -30 0 c-28 0 -30 3 -30 35 l0 35 -320 0 -320 0 0
-80z m240 -110 l0 -30 -90 0 -90 0 0 30 0 30 90 0 90 0 0 -30z"/>
<path d="M3430 620 l0 -380 25 0 c22 0 25 -4 25 -35 l0 -35 273 2 272 3 -267
2 -268 3 0 30 0 30 250 0 250 0 0 30 c0 22 5 30 18 31 14 0 14 2 -3 9 -18 8
-17 9 8 9 24 1 27 -2 27 -33 0 -24 -5 -36 -17 -39 -17 -4 -17 -5 0 -6 13 -1
17 -10 17 -41 l0 -40 -292 -3 -293 -2 298 -3 297 -2 0 90 0 90 -30 0 c-28 0
-30 3 -30 35 l0 35 -170 0 -170 0 0 25 0 25 120 0 120 0 0 90 0 90 -30 0 c-28
0 -30 3 -30 35 l0 35 -90 0 c-89 0 -90 0 -90 25 l0 25 200 0 200 0 0 90 0 90
-30 0 c-28 0 -30 3 -30 35 l0 35 -280 0 -280 0 0 -380z m610 265 c0 -26 -4
-35 -17 -36 -17 -1 -17 -2 0 -6 12 -3 17 -15 17 -44 l0 -39 -200 0 -200 0 0
-30 c0 -25 -4 -30 -25 -30 -24 0 -25 2 -25 70 l0 70 200 0 200 0 0 30 c0 22 5
30 18 31 14 0 14 2 -3 9 -18 8 -17 9 8 9 24 1 27 -2 27 -34z m-160 -300 c0
-26 -4 -35 -17 -36 -17 -1 -17 -2 0 -6 12 -3 17 -15 17 -44 l0 -39 -120 0
-120 0 0 -30 c0 -25 -4 -30 -25 -30 -24 0 -25 2 -25 70 l0 70 120 0 120 0 0
30 c0 22 5 30 18 31 14 0 14 2 -3 9 -18 8 -17 9 8 9 24 1 27 -2 27 -34z"/>
<path d="M3718 773 c56 -2 148 -2 205 0 56 1 10 3 -103 3 -113 0 -159 -2 -102
-3z"/>
<path d="M3678 473 c34 -2 90 -2 125 0 34 2 6 3 -63 3 -69 0 -97 -1 -62 -3z"/>
<path d="M4150 925 l0 -75 -40 0 -40 0 0 -230 0 -230 25 0 c22 0 25 -4 25 -35
0 -26 4 -35 18 -36 9 -1 4 -5 -13 -9 l-30 -8 28 -1 c23 -1 27 -5 27 -31 0 -25
4 -30 25 -30 22 0 25 -4 25 -35 l0 -35 233 2 232 3 -227 2 -228 3 0 30 0 30
210 0 210 0 0 30 c0 22 5 30 18 31 14 0 14 2 -3 9 -18 8 -17 9 8 9 24 1 27 -2
27 -33 0 -24 -5 -36 -17 -39 -17 -4 -17 -5 0 -6 13 -1 17 -10 17 -41 l0 -40
-252 -3 -253 -2 258 -3 257 -2 0 90 0 90 -30 0 c-28 0 -30 3 -30 35 l0 35
-170 0 -170 0 0 175 0 175 200 0 200 0 0 90 0 90 -30 0 c-28 0 -30 3 -30 35
l0 35 -240 0 -240 0 0 -75z m530 -40 c0 -26 -4 -35 -17 -36 -17 -1 -17 -2 0
-6 12 -3 17 -15 17 -44 l0 -39 -200 0 -200 0 0 -30 c0 -21 -5 -30 -17 -31 -17
-1 -17 -2 0 -6 14 -4 17 -16 17 -74 0 -59 -3 -69 -17 -70 -17 -1 -17 -2 0 -6
14 -4 17 -16 17 -74 0 -67 -1 -69 -25 -69 l-25 0 0 220 0 220 200 0 200 0 0
30 c0 22 5 30 18 31 14 0 14 2 -3 9 -18 8 -17 9 8 9 24 1 27 -2 27 -34z m-530
-525 c0 -16 -4 -30 -10 -30 -5 0 -10 14 -10 30 0 17 5 30 10 30 6 0 10 -13 10
-30z"/>
<path d="M4358 773 c56 -2 148 -2 205 0 56 1 10 3 -103 3 -113 0 -159 -2 -102
-3z"/>
<path d="M4710 620 l0 -380 25 0 c22 0 25 -4 25 -35 l0 -35 73 2 72 2 -67 3
c-68 4 -68 4 -68 33 0 29 1 30 50 30 l50 0 0 150 0 150 120 0 120 0 0 -30 0
-30 -107 -2 -108 -2 110 -6 110 -6 -97 -2 -98 -2 0 -29 c0 -20 -6 -31 -17 -34
-17 -4 -17 -5 0 -6 14 -1 17 -11 17 -70 0 -58 -3 -70 -17 -74 -17 -4 -17 -5 0
-6 13 -1 17 -10 17 -41 l0 -39 -92 -4 -93 -3 98 -2 97 -2 0 150 0 150 90 0 90
0 0 -105 0 -105 25 0 c22 0 25 -4 25 -35 l0 -35 73 2 72 2 -67 3 c-68 4 -68 4
-68 33 0 29 1 30 50 30 l50 0 0 330 c0 307 1 330 18 331 14 0 14 2 -3 9 -18 8
-17 9 8 9 24 1 27 -2 27 -33 0 -24 -5 -36 -17 -39 -17 -4 -17 -5 0 -6 14 -1
17 -11 17 -70 0 -58 -3 -70 -17 -74 -17 -4 -17 -5 0 -6 14 -1 17 -11 17 -70 0
-58 -3 -70 -17 -74 -17 -4 -17 -5 0 -6 14 -1 17 -11 17 -70 0 -58 -3 -70 -17
-74 -17 -4 -17 -5 0 -6 14 -1 17 -11 17 -70 0 -58 -3 -70 -17 -74 -17 -4 -17
-5 0 -6 13 -1 17 -10 17 -41 l0 -39 -92 -4 -93 -3 98 -2 97 -2 0 390 0 390
-30 0 c-28 0 -30 3 -30 35 l0 35 -80 0 -80 0 0 -150 0 -150 -90 0 -90 0 0 115
0 115 -30 0 c-28 0 -30 3 -30 35 l0 35 -80 0 -80 0 0 -380z m210 265 c0 -26
-4 -35 -17 -36 -17 -1 -17 -2 0 -6 14 -4 17 -16 17 -74 0 -67 -1 -69 -25 -69
l-25 0 0 100 c0 88 2 100 18 101 14 0 14 2 -3 9 -18 8 -17 9 8 9 24 1 27 -2
27 -34z"/>
<path d="M3198 773 c34 -2 90 -2 125 0 34 2 6 3 -63 3 -69 0 -97 -1 -62 -3z"/>
<path d="M1910 620 c0 -79 0 -80 25 -80 22 0 25 -4 25 -35 l0 -35 193 2 192 3
-187 2 -188 3 0 30 0 30 170 0 170 0 0 30 c0 22 5 30 18 31 14 0 14 2 -3 9
-18 8 -17 9 8 9 24 1 27 -2 27 -33 0 -24 -5 -36 -17 -39 -17 -4 -17 -5 0 -6
13 -1 17 -10 17 -41 l0 -40 -212 -3 -213 -2 218 -3 217 -2 0 90 0 90 -30 0
c-28 0 -30 3 -30 35 l0 35 -200 0 -200 0 0 -80z"/>
<path d="M598 473 c12 -2 32 -2 45 0 12 2 2 4 -23 4 -25 0 -35 -2 -22 -4z"/>
<path d="M1198 473 c34 -2 90 -2 125 0 34 2 6 3 -63 3 -69 0 -97 -1 -62 -3z"/>
</g>
</svg>
